<svg width="62" height="16" viewBox="0 0 62 16" xmlns="http://www.w3.org/2000/svg"><title>AE9F4070-0B6C-4200-B697-66BF03AC8C3D</title><defs><linearGradient x1="-233.561%" y1="26.058%" x2="372.942%" y2="23.566%" id="a"><stop stop-color="#191E5F" offset="0%"/><stop stop-color="#142787" stop-opacity=".818" offset="100%"/></linearGradient><linearGradient x1="-182.481%" y1="27.757%" x2="225.539%" y2="24.759%" id="b"><stop stop-color="#191E5F" offset="0%"/><stop stop-color="#142787" stop-opacity=".818" offset="100%"/></linearGradient><linearGradient x1="-230.002%" y1="26.836%" x2="110.954%" y2="23.739%" id="c"><stop stop-color="#191E5F" offset="0%"/><stop stop-color="#142787" stop-opacity=".818" offset="100%"/></linearGradient><linearGradient x1="-13.859%" y1="26.026%" x2="265.571%" y2="23.531%" id="d"><stop stop-color="#191E5F" offset="0%"/><stop stop-color="#142787" stop-opacity=".818" offset="100%"/></linearGradient><linearGradient x1="22.862%" y1="47.883%" x2="428.639%" y2="43.303%" id="e"><stop stop-color="#191E5F" offset="0%"/><stop stop-color="#142787" stop-opacity=".818" offset="100%"/></linearGradient><linearGradient x1="-156.382%" y1="335.864%" x2="3998.32%" y2="267.357%" id="f"><stop stop-color="#191E5F" offset="0%"/><stop stop-color="#142787" stop-opacity=".818" offset="100%"/></linearGradient></defs><g fill="none" fill-rule="evenodd"><path fill="url(#a)" d="M11.514.099h2.315l-1.448 8.767h-2.314z" transform="translate(0 3.2)"/><path d="M20.789.382a5.813 5.813 0 0 0-2.075-.368c-2.288 0-3.899 1.19-3.913 2.893-.013 1.26 1.15 1.963 2.029 2.382.901.43 1.204.704 1.2 1.088-.006.587-.72.856-1.385.856-.927 0-1.42-.133-2.18-.46l-.298-.14-.325 1.963c.54.244 1.54.456 2.579.467 2.433 0 4.013-1.175 4.031-2.995.009-.997-.608-1.756-1.943-2.382-.81-.405-1.305-.676-1.3-1.086 0-.365.42-.755 1.326-.755a4.156 4.156 0 0 1 1.733.336l.207.102.314-1.9" fill="url(#b)" transform="translate(0 3.2)"/><path d="M26.725.175h-1.789c-.554 0-.968.156-1.212.727l-3.438 8.034h2.43s.398-1.08.488-1.317l2.965.003c.07.307.282 1.314.282 1.314h2.148L26.725.175zm-2.854 5.65l.922-2.45c-.014.023.19-.508.307-.837l.156.756.536 2.531h-1.921z" fill="url(#c)" transform="translate(0 3.2)"/><path d="M8.132.024L5.865 6.003l-.241-1.215c-.422-1.4-1.737-2.918-3.207-3.678L4.49 8.777l2.45-.003 3.644-8.75H8.132" fill="url(#d)" transform="translate(.005 3.349)"/><path d="M3.763.019H.03L0 .201c2.904.726 4.826 2.48 5.624 4.587L4.812.759c-.14-.555-.547-.72-1.05-.74" fill="url(#e)" transform="translate(.005 3.349)"/><path d="M2.514 1.592c-.048-.184-.098-.294-.281-.396l.682.317" fill="url(#f)" transform="translate(0 3.2)"/><path d="M61.283 7.76c.001 4.207-3.503 7.618-7.827 7.619-4.324 0-7.83-3.408-7.831-7.615V7.76C45.624 3.553 49.128.142 53.452.141c4.324-.001 7.83 3.408 7.83 7.615v.004z" fill="#F90"/><path d="M42.901.143c-4.298.027-7.778 3.429-7.778 7.617 0 4.204 3.507 7.617 7.829 7.617a7.922 7.922 0 0 0 5.268-1.985h.001c.285-.253.55-.525.795-.816h-1.604a7.45 7.45 0 0 1-.584-.784h2.767c.168-.262.32-.534.455-.816h-3.679a7.394 7.394 0 0 1-.327-.8h4.334a7.411 7.411 0 0 0 .222-4.047h-4.786c.06-.27.135-.538.224-.8h4.335a7.5 7.5 0 0 0-.338-.816h-3.664a7.25 7.25 0 0 1 .45-.8h2.764a7.644 7.644 0 0 0-.608-.816h-1.541c.238-.272.5-.53.785-.769a7.923 7.923 0 0 0-5.27-1.985h-.05z" fill="#C00"/><path d="M60.497 11.742c.043 0 .084.01.125.032.04.02.072.051.094.091a.244.244 0 0 1-.093.337.263.263 0 0 1-.252 0 .245.245 0 0 1-.093-.337.232.232 0 0 1 .095-.091.268.268 0 0 1 .124-.032m0 .04a.22.22 0 0 0-.104.027.191.191 0 0 0-.078.077.2.2 0 0 0 .077.28.218.218 0 0 0 .21 0 .204.204 0 0 0-.002-.357.217.217 0 0 0-.103-.026m-.11.341v-.265h.093c.032 0 .055.003.07.008a.067.067 0 0 1 .034.026.069.069 0 0 1-.009.09.085.085 0 0 1-.056.023.08.08 0 0 1 .023.014c.011.01.024.028.04.053l.033.051h-.053l-.024-.041a.215.215 0 0 0-.046-.062.059.059 0 0 0-.035-.009h-.026v.113h-.044m.043-.15h.054a.105.105 0 0 0 .052-.01.036.036 0 0 0 .014-.03.034.034 0 0 0-.007-.021.041.041 0 0 0-.019-.014.14.14 0 0 0-.044-.005h-.05v.08" fill="#FCB340"/><path d="M36.669 9.742l.507-2.912.075 2.912h.574l1.071-2.912-.474 2.912h.853l.657-3.862h-1.32l-.821 2.37-.043-2.37h-1.216l-.667 3.862h.804zm4.513-3.216c-.571 0-1.01.179-1.01.179l-.12.698s.361-.143.908-.143c.31 0 .537.034.537.28 0 .149-.027.204-.027.204s-.245-.02-.359-.02c-.72 0-1.478.3-1.478 1.202 0 .71.497.874.805.874.588 0 .842-.372.855-.373l-.027.31H42l.327-2.233c0-.948-.85-.978-1.145-.978zm.179 1.818c.016.137-.088.776-.59.776-.259 0-.326-.192-.326-.306 0-.222.124-.488.735-.488.142 0 .157.015.18.018zm1.746 1.44c.188 0 1.261.046 1.261-1.032 0-1.007-.993-.808-.993-1.213 0-.201.162-.265.458-.265.117 0 .57.037.57.037l.104-.717s-.292-.063-.769-.063c-.616 0-1.242.24-1.242 1.059 0 .928 1.043.835 1.043 1.226 0 .261-.291.282-.516.282-.389 0-.739-.13-.74-.123l-.111.709c.02.006.236.1.935.1zm2.66-.085l.104-.69c-.057 0-.14.025-.214.025-.29 0-.323-.15-.304-.261l.234-1.407h.441l.107-.762h-.416l.085-.475h-.834c-.018.018-.492 2.667-.492 2.99 0 .477.276.69.664.687.304-.003.541-.085.625-.107zm10.744.048c.242-1.342.287-2.432.866-2.233.102-.52.2-.72.31-.94 0 0-.052-.01-.16-.01-.374 0-.65.495-.65.495l.074-.455h-.776l-.52 3.143h.856zm3.983-.485c.042 0 .084.01.124.032a.243.243 0 0 1 .002.428.263.263 0 0 1-.252 0 .233.233 0 0 1-.094-.091.241.241 0 0 1 .095-.337.265.265 0 0 1 .125-.032zm0 .04a.22.22 0 0 0-.104.028.203.203 0 0 0-.001.357.22.22 0 0 0 .21 0 .203.203 0 0 0-.002-.357.217.217 0 0 0-.103-.027zm-.11.343V9.38h.093c.032 0 .055.002.07.007a.067.067 0 0 1 .033.026.066.066 0 0 1 .013.038.07.07 0 0 1-.021.051.084.084 0 0 1-.056.024.1.1 0 0 1 .023.014c.01.01.024.028.04.053l.033.052h-.054l-.024-.042a.215.215 0 0 0-.046-.062.058.058 0 0 0-.035-.009h-.026v.113h-.044zm.043-.15h.053c.026 0 .043-.003.052-.01a.036.036 0 0 0 .015-.03.034.034 0 0 0-.007-.02.04.04 0 0 0-.019-.015.142.142 0 0 0-.044-.004h-.05v.08zm-5.732-2.97c-.572 0-1.01.18-1.01.18l-.12.698s.361-.143.908-.143c.31 0 .537.034.537.28 0 .149-.028.204-.028.204s-.245-.02-.358-.02c-.72 0-1.478.3-1.478 1.202 0 .71.497.874.805.874.588 0 .841-.372.855-.373l-.028.31h.734l.328-2.233c0-.948-.85-.978-1.145-.978zm.179 1.82c.016.136-.088.775-.59.775-.26 0-.326-.192-.326-.306 0-.222.124-.488.734-.488.142 0 .158.015.182.018zm-5.362 1.402c.243-1.342.288-2.432.867-2.233.101-.52.199-.72.31-.94 0 0-.052-.01-.161-.01-.374 0-.65.495-.65.495l.074-.455h-.776l-.52 3.143h.856zm10.164-3.864l-.18 1.086s-.313-.422-.804-.422c-.764 0-1.4.896-1.4 1.925 0 .665.339 1.316 1.033 1.316.5 0 .776-.339.776-.339l-.037.29h.811l.637-3.857-.836.001zM59.29 8c0 .428-.218 1-.67 1-.3 0-.44-.245-.44-.63 0-.628.29-1.043.656-1.043.3 0 .454.2.454.673zm-6.517 1.699l.149-.884s-.41.2-.69.2c-.591 0-.828-.44-.828-.912 0-.957.508-1.484 1.075-1.484.424 0 .765.232.765.232l.136-.859s-.505-.199-.938-.199c-.963 0-1.899.812-1.899 2.338 0 1.011.506 1.679 1.5 1.679.282 0 .73-.111.73-.111zm-6.74-1.314c0 1.146.777 1.418 1.44 1.418.61 0 .88-.133.88-.133l.146-.782s-.465.2-.885.2c-.895 0-.738-.65-.738-.65h1.694s.11-.525.11-.74c0-.534-.274-1.185-1.19-1.185-.837 0-1.458.879-1.458 1.872zm1.46-1.146c.471 0 .385.515.385.556h-.926c0-.053.088-.556.542-.556z" fill="#FFF"/></g></svg>