<svg width="54" height="17" viewBox="0 0 54 17" xmlns="http://www.w3.org/2000/svg"><title>869B6640-E04C-46FD-86C7-B05D540D9AC6</title><g fill="none" fill-rule="evenodd"><path d="M4.769 9.387h-.71c-1.117 0-2.2-.802-2.2-2.806 0-2.089 1.016-2.94 2.047-2.94h.863v5.746zm1.116-6.816H3.957c-1.894 0-3.5 1.42-3.5 4.177 0 1.654.778 2.873 2.164 3.475l-2.587 4.61c-.085.151 0 .268.135.268h1.2c.102 0 .17-.033.203-.117l2.351-4.527h.846v4.527c0 .05.05.117.118.117h1.049c.101 0 .135-.05.135-.134V2.738c0-.116-.068-.167-.186-.167z" fill="#F00"/><path d="M12.186 6.857h-1.048c-.085 0-.135.067-.135.117v3.19H9.057v-3.19c0-.083-.033-.117-.117-.117H7.89c-.083 0-.134.05-.134.117v8.12c0 .083.034.133.118.133H8.94c.067 0 .117-.05.117-.134v-3.876h1.946v3.876c0 .084.05.134.135.134h1.048c.085 0 .119-.067.119-.134v-8.12a.115.115 0 0 0-.119-.116m23.995 7.75l-.135-.568c-.016-.05-.033-.066-.084-.066-.084 0-.541.183-1.2.183-1.286 0-1.912-1.22-1.912-3.157 0-1.705.525-3.392 1.404-3.392.237 0 .524.067.98.485.051.05.085.067.136.067.05 0 .101-.034.152-.118l.457-.734a.271.271 0 0 0 .05-.151c0-.067-.067-.117-.169-.167-.693-.35-1.166-.418-1.572-.418-1.59 0-2.825 1.872-2.825 4.795 0 2.522 1.184 3.976 2.875 3.976.711 0 1.471-.334 1.776-.551a.166.166 0 0 0 .067-.184m-7.398-3.975l2.029-3.658c.034-.05.017-.117-.051-.117h-.998c-.287 0-.389.1-.49.317l-1.522 3.124c-.084.184-.17.3-.254.352V6.974c0-.067-.033-.117-.101-.117h-1.1c-.05 0-.1.05-.1.117v8.136c0 .05.033.117.1.117h1.1c.068 0 .101-.05.101-.117v-4.194a.37.37 0 0 1 .119.151l1.928 3.909c.101.2.253.25.474.25H31.1c.067 0 .084-.066.05-.116l-2.367-4.478zm-11.441 3.542H14.89c.862-1.453 1.2-3.09 1.32-5.095.033-.434.05-.886.05-1.17h1.082v6.265zm1.827 0h-.204c-.253 0-.321-.1-.321-.3v-6.9c0-.083-.034-.117-.102-.117H15.16c-.084 0-.135.05-.135.117v.601c0 2.022-.118 4.627-1.2 6.6h-.373c-.101 0-.135.05-.135.133v2.439c0 .084.068.117.118.117h.812c.186 0 .253-.133.253-.251v-1.387h3.62v1.521c0 .067.05.117.118.117h.863c.1 0 .202-.084.202-.251v-2.305c0-.083-.05-.134-.134-.134zm3.186-3.977c-.39 0-.998.066-.998.066s0-.25.034-.518c.152-1.42.507-2.138 1.099-2.138.541 0 .88.735.964 2.021.017.268.017.569.017.569h-1.116zm.186-3.626c-1.826 0-2.639 2.272-2.639 4.745 0 2.523 1.15 4.025 2.842 4.025a3.81 3.81 0 0 0 1.927-.55c.068-.034.085-.084.068-.15l-.135-.569c-.017-.066-.051-.1-.136-.1-.067 0-.558.184-1.25.184-1.303 0-1.912-1.12-1.912-2.59v-.395s.66.078 1.049.078h2.469v-.702c0-2.589-.931-3.976-2.283-3.976z" fill="#000"/><path d="M53.945 6.286H43.151c-.633 0-1.151.51-1.151 1.134v6.859c0 .623.518 1.133 1.151 1.133h10.794V6.286z" fill="#FAC413"/><path d="M42 14.279V7.42c0-.624.518-1.134 1.151-1.134h8.899v5.474l-8.777 2.812L42 14.28z" fill="#D6AB05"/><path d="M50.26 0v10.016l-7.271 4.877-.989-.556V7.673c0-.869.074-1.42 1.9-2.763C45.414 3.8 50.26 0 50.26 0" fill="#FAC413"/><path d="M47.173 6.206c.396-.465.975-.63 1.293-.367.317.263.254.852-.142 1.317-.396.465-.975.629-1.292.366-.318-.262-.255-.852.141-1.316" fill="#030303"/></g></svg>