<?xml version="1.0" encoding="UTF-8" standalone="no"?>
<svg
   xmlns:dc="http://purl.org/dc/elements/1.1/"
   xmlns:cc="http://creativecommons.org/ns#"
   xmlns:rdf="http://www.w3.org/1999/02/22-rdf-syntax-ns#"
   xmlns:svg="http://www.w3.org/2000/svg"
   xmlns="http://www.w3.org/2000/svg"
   version="1.1"
   id="svg5981"
   viewBox="0 0 72 71.999997"
   height="72"
   width="72">
  <defs
     id="defs5983" />
  <metadata
     id="metadata5986">
    <rdf:RDF>
      <cc:Work
         rdf:about="">
        <dc:format>image/svg+xml</dc:format>
        <dc:type
           rdf:resource="http://purl.org/dc/dcmitype/StillImage" />
        <dc:title></dc:title>
      </cc:Work>
    </rdf:RDF>
  </metadata>
  <g
     transform="translate(602.81529,-429.01916)"
     id="layer1">
    <g
       transform="matrix(1.8750003,0,0,-1.8750003,-214.80703,132.30356)"
       id="g12">
      <path
         id="path14"
         style="fill:none;stroke:#22313c;stroke-width:0.23465608;stroke-linecap:butt;stroke-linejoin:miter;stroke-miterlimit:10;stroke-dasharray:none;stroke-opacity:1"
         d="m -197.22587,-185.68588 9.46945,-4.15322 9.46945,4.15322 m -15.55844,10.34782 -1.1967,-3.23812 m 13.37474,3.23812 1.0559,-3.23812 m -2.64101,0.99255 2.64101,-0.99255 3.48802,4.81871 m -22.29782,-13.3951 11.66485,-2.68653 11.82836,2.68653 m -11.82836,18.43148 0,-2.18221 m -9.63882,0.91812 -2.71521,0.34898 -6.65902,-5.06834 m 0.39403,-7.95442 1.68943,6.84342 5.26474,-11.33703 2.1954,1.46669 5.29553,7.60248 m 8.32508,0 5.31829,-7.60248 2.35891,-1.46669 4.91726,11.33703 1.80301,-7.05461 m -37.56168,8.16561 2.08346,-1.111 4.57556,6.17934 -1.33745,3.09732 -5.32157,-8.16566 z m 28.4825,4.46401 2.74379,0.74512 4.53238,-6.32013 2.30254,1.111 -5.35663,8.3064 -1.47829,-3.09727 6.83492,-5.20913 m -34.99224,14.22734 2.2526,-6.06168 m -5.32157,-8.16566 0.39403,-7.95442 18.61902,-12.03109 18.54863,11.8199 0.49953,8.16561 -5.35663,8.3064 2.25255,5.92094 m -15.94408,-8.24389 9.46945,4.01004 -9.46945,2.74773 -9.46945,-2.74773 9.46945,-4.01004 z m 16.74562,-7.09445 -6.11265,2.05807 -4.54392,-1.58059 9.85503,14.86086 -15.94408,-10.4261 -15.94408,10.4261 9.85509,-14.86086 -4.90741,1.58059 -5.93319,-2.05807 m 5.93319,2.05807 3.71071,-4.81871 2.76317,0.99255 m 4.52252,-6.48322 0.0175,-3.23806 m 1.84787,5.9834 -3.73084,0 1.88297,-5.9834 1.84787,5.9834 z m -1.86542,-8.51759 3.4983,10.83083 -3.4983,-5.05858 -3.33061,4.77455 3.33061,-10.5468 z m 0,5.77225 1.86542,2.74534 4.22363,5.98345 -6.0715,-2.74534 -6.10654,2.74534 6.08899,-8.72879 z m -1.86542,2.74534 1.88297,3.23811 1.84787,-3.23811 -1.86542,-2.74534 -1.86542,2.74534 z" />
    </g>
  </g>
</svg>
