<?xml version="1.0" encoding="utf-8"?>
<!-- Generator: Adobe Illustrator 16.0.4, SVG Export Plug-In . SVG Version: 6.00 Build 0)  -->
<!DOCTYPE svg PUBLIC "-//W3C//DTD SVG 1.1//EN" "http://www.w3.org/Graphics/SVG/1.1/DTD/svg11.dtd">
<svg version="1.1" id="Layer_1" xmlns="http://www.w3.org/2000/svg" xmlns:xlink="http://www.w3.org/1999/xlink" x="0px" y="0px"
	 width="60px" height="39px" viewBox="0 0 215.948 139.556" enable-background="new 0 0 215.948 139.556"
	 xml:space="preserve">
<path fill="#ffffff" d="M215.948,72.407c-1.833-7.865-7.626-16.167-13.301-21.796c-2.63,0.219-5.772-0.069-7.044,1.503
	c-0.747-1.529,3.348-3.09,4.973-4.138c-1.022-3.627-7.041-2.656-9.673-0.547c0.56-2.292,2.734-2.967,3.911-4.627
	c-2.399-3.518-5.932-5.87-11.086-6.52c0.226-2.018,0.029-3.583-0.388-4.929C172.15,17.42,147.852,4.915,122.284,4.58
	c-6.834-0.088-13.216,2.671-19.977,1.686C96.406,5.41,89.252,1.857,80.792,2.702C72.191,3.561,63.476,5.6,58.265,0
	c3.407,14.023,13.408,21.805,29.415,22.676c-2.582-3.174-10.886-3.768-11.673-8.814c11.816-0.279,20.384-0.7,25.881,5.632
	c-10.25,12.401-33.962,6.548-40.243-3.568l-1.15,0.064C18.019,19.457,0,48.824,0,48.824c1.03-0.656,3.945-2.024,7.973-3.812
	c19.286-4.015,65.256-6.585,79.862,2.794c-6.074,6.464-19.1,3.142-22.61-2.516l-0.657,0.036
	c-24.319,1.986-34.634,18.796-34.634,18.796c0.59-0.376,2.259-1.159,4.564-2.179c9.951-2.074,32.298-3.469,42.735,0.205
	c-1.432,2.814-2.563,5.857-3.329,9.104c-3.746,0.433-7.996-1.29-9.488-3.688l-0.408,0.023
	c-15.077,1.229-21.472,11.656-21.472,11.656c0.364-0.233,1.399-0.719,2.828-1.354c6.506-1.354,21.562-2.242,27.494,0.528
	c-0.115,1.941-0.105,3.942,0.046,5.997c1.626,21.98,24.412,29.397,44.197,32.14c-9.34-5.582-19.675-12.193-17.438-27.062
	c0.827-5.553,4.693-11.668,8.037-15.864c9.366-11.734,28.36-18.544,46.262-15.842c-7.42-7.512-23.225-10.891-37.255-13.279
	c0.643,2.702,6.031,5.059,7.254,8.942c-18.575,5.359-31.248,16.6-34.567,37.182c-5.111-19.689,9.409-33.572,20.214-42.973
	c-4.421-3.724-11.054-5.14-13.1-11.354c34.92,1.171,63.662,8.786,75.914,33.638c-20.331-15.397-66.198-4.943-59.594,28.7
	c1.091,5.563,3.779,10.282,6.574,13.388c4.046,4.489,12.654,6.928,15.188,13.427c0.874,2.271-0.087,5.424,1.888,8.146
	c3.277,4.523,16.387,8.742,24.12,3.581c-0.105-8.059,4.698-11.232,8.039-15.867c-7.216-4.536-23.291,0.182-29.438-5.474
	c6.132-0.541,36.044,8.047,34.142-6.9c-4.207,3.789-16.617,7.132-17.696-2.289c-1.329,1.141-1.74,3.188-3.884,3.527
	c-2.139,0.098-2.145-2.024-2.572-3.711c-2.111,0.354-1.59,3.35-4.406,3.003c0.063-1.3-0.88-1.569-0.437-3.274
	c-1.086-0.618-3.688,3.262-5.411,0.854c0.138-5.966,6.276-10.2,11.23-14.387c4.503-3.814,10.505-9.752,16.481-10.293
	c13.513-1.221,21.152,15.577,9.977,24.741c6.315-1.224,12.795-5.686,13.265-10.665c0.626-6.597-7.855-11.477-12.472-14.147
	c10.187-1.227,13.094,9.769,17.229,16.633c3.35-4.005,17.957-11.564,18.371-18.662c0.162-2.789-2.638-3.445-4.623-6.887
	c-2.087-3.59-2.106-7.46-7.292-7.833C209.774,59.936,208.043,73.724,215.948,72.407 M87.324,49.361l0.671-1.45
	c0.202,0.132,0.397,0.266,0.587,0.402C88.157,48.655,87.74,49.004,87.324,49.361 M156.267,36.201
	c-1.876-3.715-3.014-8.217-3.896-12.98c6.525,3.484,11.677,8.402,15.689,14.512C165.004,38.422,159.553,37.041,156.267,36.201"/>
</svg>
