<?xml version="1.0" encoding="utf-8"?>
<!-- Generator: Adobe Illustrator 16.0.4, SVG Export Plug-In . SVG Version: 6.00 Build 0)  -->
<!DOCTYPE svg PUBLIC "-//W3C//DTD SVG 1.1//EN" "http://www.w3.org/Graphics/SVG/1.1/DTD/svg11.dtd">
<svg version="1.1" id="Layer_1" xmlns="http://www.w3.org/2000/svg" xmlns:xlink="http://www.w3.org/1999/xlink" x="0px" y="0px"
	 width="20px" height="20px" viewBox="30.596 44.096 550.815 550.808"
	 enable-background="new 30.596 44.096 550.815 550.808" xml:space="preserve">
<g>
	<g>
		<path fill="#abb5c4" d="M559.175,594.903c-5.686,0-11.377-2.173-15.716-6.512L37.108,82.047c-8.684-8.672-8.684-22.76,0-31.432
			c8.685-8.685,22.754-8.685,31.438,0l506.351,506.344c8.685,8.672,8.685,22.761,0,31.433
			C570.552,592.736,564.86,594.903,559.175,594.903z"/>
	</g>
	<g>
		<path fill="#abb5c4" d="M52.831,594.903c-5.685,0-11.377-2.173-15.716-6.512c-8.685-8.673-8.685-22.761,0-31.433L543.459,50.608
			c8.685-8.684,22.754-8.684,31.438,0c8.685,8.672,8.685,22.76,0,31.433L68.547,588.392
			C64.208,592.736,58.516,594.903,52.831,594.903z"/>
	</g>
</g>
</svg>
