<?xml version="1.0" encoding="utf-8"?>
<!-- Generator: Adobe Illustrator 16.0.4, SVG Export Plug-In . SVG Version: 6.00 Build 0)  -->
<!DOCTYPE svg PUBLIC "-//W3C//DTD SVG 1.1//EN" "http://www.w3.org/Graphics/SVG/1.1/DTD/svg11.dtd">
<svg version="1.1" id="Layer_1" xmlns="http://www.w3.org/2000/svg" xmlns:xlink="http://www.w3.org/1999/xlink" x="0px" y="0px"
	 width="24px" height="24px" viewBox="0 13.496 612 612.004" enable-background="new 0 13.496 612 612.004"
	 xml:space="preserve">
<g>
	<g>
		<path fill="#233a59" d="M604.273,91.02l-178.5-76.5c-5.228-2.244-11.373-0.714-14.969,3.749l-51,63.75c-2.422,3.009-3.34,6.936-2.499,10.71
			c0.791,3.596,3.137,6.554,6.324,8.313L203.439,161.12C190,166.168,178.5,175.731,171.13,188.022l-52.938,88.23
			c-11.271,18.793-12.164,41.718-2.346,61.302l3.723,7.446H63.75C56.712,345,51,350.712,51,357.75V600H12.75
			C5.712,600,0,605.712,0,612.75s5.712,12.75,12.75,12.75h433.5c7.038,0,12.75-5.712,12.75-12.75S453.288,600,446.25,600H408V421.5
			c0-0.969-0.357-1.811-0.535-2.703c23.919-16.192,51.255-41.183,75.097-79.79c40.521-65.535,63.292-118.294,72.65-142.035
			l1.428,0.714c5.457,2.729,11.296,4.08,17.136,4.08c6.962,0,13.897-1.913,20.068-5.763C605.217,188.991,612,176.828,612,163.465
			v-60.741C612,97.625,608.966,93.035,604.273,91.02z M382.5,600h-306V370.5h63.929c0.306,0,0.612,0.025,0.943,0h101.082
			c-11.5,6.987-25.627,15.785-43.503,27.157c-13.592,8.645-22.899,22.058-26.214,37.816c-3.34,15.76-0.255,31.85,8.747,45.313
			c11.398,17.162,30.192,26.495,49.419,26.495c10.404,0,20.961-2.754,30.523-8.44l87.618-52.556
			c5.023-1.225,17.34-4.769,33.456-12.801V600L382.5,600z M213.231,312.793c19.507-8.364,45.594-23.511,58.829-38.938
			c10.174,5.967,26.188,13.643,46.206,17.569c-14.229,17.621-28.509,39.041-34.553,54.213c-1.045-0.281-2.065-0.638-3.213-0.638
			h-52.377C225.42,332.327,219.172,321.132,213.231,312.793z M460.938,325.595c-50.286,81.345-118.474,96.059-119.137,96.186
			c-1.428,0.307-2.83,0.842-4.08,1.581l-89.352,53.602c-15.555,9.358-35.598,4.845-45.696-10.303
			c-5.1-7.675-6.859-16.855-4.972-25.856c1.912-8.977,7.216-16.651,14.968-21.573c68.519-43.63,80.886-48.424,80.631-48.705
			c7.063,0,12.725-5.1,12.725-12.138c1.301-7.981,24.531-45.313,47.303-68.085c3.646-3.646,4.743-9.129,2.754-13.897
			c-1.964-4.769-6.63-7.88-11.781-7.88c-39.678,0-68.238-22.465-68.519-22.695c-3.825-3.035-8.95-4.462-13.387-2.321
			c-4.437,2.117-7.14,5.789-7.14,10.685c-4.513,10.939-53.448,38.607-64.005,39.806c-5.253,0-9.919,3.188-11.832,8.083
			s-0.638,10.455,3.213,14.025c0.153,0.153,13.515,12.852,18.972,28.892h-53.499l-9.41-18.87c-5.89-11.755-5.38-25.5,1.403-36.771
			l52.938-88.23c4.437-7.395,11.322-13.107,19.38-16.142l182.121-68.289l137.776,68.875
			C523.872,207.122,501.355,260.187,460.938,325.595z M586.5,163.517c0,6.426-4.233,9.715-6.043,10.837
			c-1.811,1.122-6.682,3.417-12.394,0.561l-178.5-89.25l35.088-43.834L586.5,111.19V163.517z"/>
	</g>
</g>
</svg>
