<?xml version="1.0" encoding="UTF-8" standalone="no"?>
<svg
   xmlns:dc="http://purl.org/dc/elements/1.1/"
   xmlns:cc="http://creativecommons.org/ns#"
   xmlns:rdf="http://www.w3.org/1999/02/22-rdf-syntax-ns#"
   xmlns:svg="http://www.w3.org/2000/svg"
   xmlns="http://www.w3.org/2000/svg"
   version="1.1"
   id="svg4234"
   viewBox="0 0 493.36697 255.99998"
   height="256"
   width="493.367">
  <defs
     id="defs4236" />
  <metadata
     id="metadata4239">
    <rdf:RDF>
      <cc:Work
         rdf:about="">
        <dc:format>image/svg+xml</dc:format>
        <dc:type
           rdf:resource="http://purl.org/dc/dcmitype/StillImage" />
        <dc:title></dc:title>
      </cc:Work>
    </rdf:RDF>
  </metadata>
  <g
     transform="translate(2318.5964,338.4735)"
     id="layer1">
    <g
       transform="matrix(0.22889084,0,0,-0.22889084,-2044.9256,-256.91998)"
       id="g36">
      <path
         id="path38"
         style="fill:none;stroke:#22313c;stroke-width:5;stroke-linecap:butt;stroke-linejoin:miter;stroke-miterlimit:10;stroke-dasharray:none;stroke-opacity:1"
         d="m 0,0 289.013,167.503 158.605,106.216 m -633.665,-641.944 -39.85,-25.879 -141.533,-270.206 m 45.099,-32 129.04,258.55 m -69.381,-279.55 98.09,243.487 m -6.664,-236.487 30.681,206.317 m 74.628,-205.317 -33.414,200.28 m 125.84,-208.28 -97.604,243.487 m 28.921,36.063 128.341,-258.55 m -333.379,341 -150.198,-262 0,-54 30,7 13,-51 32.099,19 13.901,-48 45.758,27 36.242,-32 55.184,39 53.608,-50 m -1.908,1 53.609,50 56.183,-40 36.243,32 45.757,-27 13.901,48 32.099,-19 13,51 30,-7 0,54 -150.198,262 m -129.796,109.93 0.727,-286.93 m 249.267,-132 -141,267 -40.792,29.085 m -222.208,74.062 25.896,-64.147 26.939,-46 101.898,-128 108.267,135 20.802,42 21.002,67.148 m -356.804,-12.148 52,74 -6.228,85.277 92.935,-227.192 68.026,-164.085 160.148,389.446 M -488.056,60.69 -283.264,-69.01 -526.065,164.714 -485.098,58.626 m 99.257,-365.229 89.243,172.653 m -208.286,-160.213 7.878,-35.147 40.252,22.707 8,-29.564 62.913,29.564 0.678,-29.564 60.409,35.857 15,-22 37,28.147 0,67.853 m 117.805,124.962 -45.929,-65.938 -19.041,-10.583 -46.165,94.152 -14.15,-57.316 -52.52,22.731 -29.302,33.577 -142.828,-209.438 -24.002,-12.44 -15.002,42.443 -24.002,-15.002 -3.001,45.005 -33.003,0 0,39.004 -51.005,-12.001 12.001,39.003 -60.006,-21.002 0,27.003 -78.007,-27.003 -6.001,39.004 -114.012,-12.001 21.003,63.006 -105.011,-39.003 27.003,81.008 -120.012,0 75.007,90.009 -135.013,18.001 87.009,84.009 -138.014,36.003 114.011,63.007 -60.006,57.005 195.02,15.002 -21.003,48.005 m 600.272,-438.064 -124.51,143.6 45.112,-123.267 -130.835,-170.328 m 166.835,149.432 -139.832,-179.435 m -60.006,69.007 129.838,153.703 m -98,29.315 -130.848,-150.015 m 60.006,-6.001 134.842,156.016 19.216,69.97 -99.216,-32.769 -198.856,-175.215 m -93.009,51.005 241.865,150.497 m 141.05,35.337 -149.05,0 -311.873,-143.829 m -45.005,90.009 322.878,87.82 m 171.346,0 -137.346,38 -404.882,-23.81 m 368.882,67.81 -392.885,31.2 m 387.039,39.004 15.846,-52.204 150.853,-63.706 m 159.147,-241.709 -42,0 -36,20.896 -34,22.379 -34,29.315 -64,0 -16,37.201 -50,26.287 -8,35.337 -34,34 34,38 -36,44 10,18 -267.871,85.207 M -246.858,-12.135 -687.902,272.894 -960.93,353.902 M 252.246,60.69 289.602,165.047 45.185,-67.404 103.499,-120.539 222.227,-308.435 M 335.08,-234.157 205.888,-64.614 248.91,57.929 126.246,-84.725 269.073,-294.163 m 39.004,30.003 -139.831,179.435 M 368.083,-195.153 238.246,-41.45 M 467.093,-162.15 336.246,-12.135 M 551.102,-150.149 350.972,29.705 252.246,60.69 270.972,-7.496 407.087,-168.151 M 644.111,-99.144 402.246,51.353 M 722.119,-57.139 410.246,86.69 l -149.05,0 M 767.123,32.87 444.246,120.69 m 370.882,14.19 -404.882,23.81 -137.347,-38 m 566.231,113.2 -392.884,-31.2 m -647.124,-369.976 82.493,-40.583 81.767,40.583 m -134.941,89.749 -10.379,-28.085 10.379,28.085 z m 105.622,0 9.158,-28.085 m -22.906,8.608 22.906,-8.608 30.252,41.793 m -193.392,-116.177 101.534,-30.113 102.226,30.113 m -102.589,159.858 0,-18.926 m -83.599,7.963 -23.55,3.027 -57.754,-43.959 -49.103,-46.259 -124,-188.301 m 542.809,0 -42.004,84.447 -1.924,79.292 -18.928,63.198 -39.882,-97.41 -19.935,9.79 -46.127,65.938 m -200.906,29.305 16.643,-8.875 41.111,52.834 -11.6,26.863 -46.154,-70.822 z m 247.033,38.717 25.16,6.305 39.309,-54.816 18.608,9.794 L 0,0 l -12.821,-26.863 59.28,-45.18 m -303.493,123.396 19.537,-52.574 m -46.154,-70.822 3.417,-68.99 161.486,-104.347 160.875,102.516 4.332,70.821 L 0,0 19.537,51.353 m -138.285,-71.501 78.924,35.71 -78.924,22.902 -78.76,-22.854 78.76,-35.758 z m 145.237,-61.531 -53.016,17.85 -39.41,-13.708 85.474,128.89 -138.285,-90.427 -138.286,90.427 85.475,-128.89 -42.563,13.708 -51.459,-17.85 m 51.459,17.85 32.184,-41.793 23.965,8.608 m 39.225,-56.229 0.152,-28.085 m 16.027,51.895 -32.358,0 16.331,-51.895 16.027,51.895 z m -16.179,-73.874 30.341,93.937 -30.341,-43.873 -28.887,41.41 28.887,-91.474 z m 0,52.542 16.179,23.811 36.632,51.895 -52.659,-23.81 -52.963,23.81 52.811,-75.706 z m -16.179,21.332 16.331,28.085 16.027,-28.085 -16.179,-23.81 -16.179,23.81 z m 839.044,435.33 -267.871,-85.207 10,-18 -36,-44 34,-38 -34,-34 -8,-35.337 -50,-26.287 -16,-37.201 -64,0 -34,-29.315 -34,-22.379 -36,-20.896 -42,0 -26,-30.665 -42,-15.453 93.816,-175.76 m 136.951,474.106 147.233,53.187 11.372,53.029 273.467,76.561 -16.968,-44.383 195.02,-15.002 L 839.13,233.89 953.142,170.883 815.128,134.88 902.137,50.871 767.123,32.87 l 75.008,-90.009 -120.012,0 27.002,-81.008 -105.01,39.003 21.002,-63.006 -114.011,12.001 -6.001,-39.004 -78.008,27.003 0,-27.003 -60.006,21.002 12.002,-39.003 -51.006,12.001 0,-39.004 -33.003,0 -3,-45.005 -24.003,15.002 -15.001,-42.443 -24.003,12.44 -6,-30.003 -42.004,17.563 -6.001,-29.564 -63.006,29.564 -3,-29.564 -63.007,29.564 -15.001,-14.563 -39.004,33.004 12.001,66.006" />
    </g>
  </g>
</svg>
